<svg width="118" height="32" viewBox="0 0 118 32" fill="none" xmlns="http://www.w3.org/2000/svg">
<g clip-path="url(#clip0_1502_17)">
<path d="M40.629 6.16666C38.8044 6.16666 37.3534 6.67074 36.305 7.70282C35.314 8.67843 34.8248 9.9549 34.8248 11.5117C34.8248 13.046 35.2755 14.2651 36.2011 15.1391C37.1219 16.0086 38.4591 16.5022 40.1831 16.6451L40.184 16.6452L40.185 16.6453C41.8396 16.7679 42.9159 17.0554 43.4699 17.4713C43.7087 17.6598 43.8592 17.872 43.9339 18.1075L43.9364 18.1152L43.9394 18.1227C44.034 18.3555 44.0849 18.6442 44.0849 18.9942C44.0849 19.7368 43.7859 20.3359 43.1754 20.807C42.5632 21.2794 41.7219 21.5269 40.629 21.5269C39.4911 21.5269 38.6102 21.2225 37.9622 20.6338C37.5225 20.2319 37.2202 19.6139 37.0762 18.752C37.052 18.6069 36.9248 18.497 36.7718 18.497H34.5152C34.4726 18.497 34.4307 18.5068 34.3926 18.5255C34.2885 18.5768 34.2286 18.6873 34.2433 18.8008C34.4496 20.3981 35.044 21.6934 36.0374 22.6713L36.0392 22.6731L36.041 22.6748C37.2124 23.7731 38.7764 24.3128 40.7093 24.3128C41.5704 24.3128 42.3966 24.1775 43.1866 23.9063C43.9995 23.6334 44.7044 23.2138 45.2985 22.6473L45.2997 22.6461L45.3009 22.6449C45.8005 22.1531 46.1903 21.5962 46.4687 20.9749C46.7484 20.3507 46.8881 19.6898 46.8881 18.9942C46.8881 17.2131 46.2089 15.8765 44.836 15.0248L44.8348 15.0241C44.2971 14.6955 43.671 14.4424 42.9593 14.2625C42.2647 14.0648 41.4129 13.9229 40.407 13.8345C39.4355 13.7475 38.777 13.5581 38.3956 13.2921L38.3944 13.2913L38.3931 13.2905C38.138 13.1178 37.9493 12.9006 37.8231 12.6374C37.6968 12.3566 37.628 11.9846 37.628 11.5117C37.628 10.6871 37.8495 10.0885 38.2622 9.68225L38.2648 9.67963L38.2674 9.67692C38.6886 9.23153 39.4614 8.97892 40.6558 8.97892C41.3672 8.97892 41.9295 9.09026 42.3547 9.29954L42.359 9.30164L42.3633 9.30356C42.8046 9.4966 43.1758 9.811 43.4769 10.2551C43.7297 10.6445 43.9051 11.1478 43.9953 11.7735C44.0166 11.9215 44.145 12.0352 44.3007 12.0352H46.5141C46.6988 12.0352 46.8436 11.8752 46.8186 11.6927C46.6061 10.1446 46.0428 8.87355 45.1191 7.89288C44.036 6.73506 42.5295 6.16666 40.629 6.16666Z" fill="#FB414D"/>
<path d="M0.307714 6.21935C0.137767 6.21935 0 6.35498 0 6.52228V23.8518C0 24.0191 0.137768 24.1548 0.307714 24.1548H2.52222C2.69216 24.1548 2.82993 24.0191 2.82993 23.8518V10.8872L7.68927 17.8321C7.7467 17.9142 7.84145 17.9632 7.94269 17.9632H9.6607C9.76167 17.9632 9.85622 17.9145 9.91369 17.8327L14.8001 10.8844V23.8518C14.8001 24.0191 14.9378 24.1548 15.1078 24.1548H17.3223C17.4922 24.1548 17.63 24.0191 17.63 23.8518V6.52228C17.63 6.35498 17.4922 6.21935 17.3223 6.21935H14.794C14.6929 6.21935 14.5983 6.26817 14.5409 6.34997L8.80162 14.5195L3.06236 6.34997C3.0049 6.26817 2.91031 6.21935 2.80928 6.21935H0.307714Z" fill="#FB414D"/>
<path d="M50.3202 6.2457C49.9228 6.2457 49.5755 6.39232 49.2881 6.67528C49.0152 6.94394 48.8785 7.27834 48.8785 7.665C48.8785 8.05139 49.0148 8.39152 49.2827 8.67554L49.288 8.68116L49.2937 8.68639C49.5822 8.95012 49.9277 9.0843 50.3202 9.0843C50.713 9.0843 51.0527 8.94972 51.3256 8.68106C51.613 8.3981 51.7619 8.05625 51.7619 7.665C51.7619 7.2758 51.6143 6.94165 51.3256 6.67517C51.0549 6.391 50.7155 6.2457 50.3202 6.2457Z" fill="#FB414D"/>
<path d="M20.5088 10.5666C20.3388 10.5666 20.201 10.7022 20.201 10.8695V18.4936C20.201 19.294 20.3583 20.0593 20.6728 20.7878L20.6732 20.7887L20.6736 20.7896C20.9878 21.4993 21.4316 22.1273 22.0036 22.6725C22.5573 23.2173 23.1944 23.6444 23.9138 23.9531L23.9159 23.954L23.918 23.9548C24.6403 24.2465 25.408 24.3919 26.2193 24.3919C26.8897 24.3919 27.5495 24.2634 28.1977 24.0082L28.2001 24.0073L28.2024 24.0063C28.6795 23.805 29.0997 23.5576 29.4611 23.2632V23.7103C29.4611 24.1582 29.377 24.5789 29.2097 24.9742L29.2082 24.9777L29.2069 24.9812C29.0568 25.3752 28.8323 25.7189 28.5326 26.0139C27.8744 26.6618 27.1066 26.9807 26.2193 26.9807C25.6711 26.9807 25.1563 26.8342 24.671 26.5377L24.6688 26.5363L24.6665 26.535C24.2038 26.268 23.7971 25.8783 23.4481 25.3589C23.3594 25.2269 23.1797 25.181 23.036 25.2626L21.118 26.352C20.9654 26.4386 20.9163 26.6354 21.016 26.7819C21.66 27.7277 22.4118 28.4602 23.2735 28.9727L23.2743 28.9732L23.2751 28.9737C24.1819 29.502 25.1646 29.7667 26.2193 29.7667C27.032 29.7667 27.8009 29.612 28.524 29.3018C29.2623 28.9928 29.918 28.5563 30.4898 27.9934C31.0459 27.4459 31.4717 26.7985 31.7673 26.0535C32.0808 25.3085 32.2375 24.5268 32.2375 23.7103V10.8695C32.2375 10.7022 32.0998 10.5666 31.9298 10.5666H29.7688C29.5989 10.5666 29.4611 10.7022 29.4611 10.8695V18.3355C29.4611 18.9331 29.3183 19.4868 29.0328 19.9998C28.7482 20.4938 28.3559 20.8887 27.8528 21.1863C27.3503 21.4661 26.807 21.606 26.2193 21.606C25.6335 21.606 25.0915 21.4584 24.5894 21.1621C24.1029 20.8645 23.7083 20.4685 23.4045 19.9712C23.1194 19.4579 22.9774 18.9137 22.9774 18.3355V10.8695C22.9774 10.7022 22.8397 10.5666 22.6697 10.5666H20.5088Z" fill="#FB414D"/>
<path d="M49.32 10.5666C49.1501 10.5666 49.0123 10.7022 49.0123 10.8695V23.8518C49.0123 24.0191 49.1501 24.1548 49.32 24.1548H51.3739C51.5439 24.1548 51.6816 24.0191 51.6816 23.8518V10.8695C51.6816 10.7022 51.5439 10.5666 51.3739 10.5666H49.32Z" fill="#FB414D"/>
<path fill-rule="evenodd" clip-rule="evenodd" d="M73.8908 10.8261C74.7955 10.5875 75.7027 10.5261 76.611 10.6428C77.5363 10.7549 78.3869 11.0379 79.1604 11.4924C80.8306 12.4712 81.9112 13.839 82.3881 15.5912C82.4742 15.9076 82.5379 16.2471 82.5796 16.609L82.6 16.7864L72.1716 19.5373C72.2924 19.8274 72.5063 20.1134 72.8247 20.3943C73.2395 20.7403 73.6758 21.0083 74.1335 21.2C74.9641 21.5498 75.8366 21.6053 76.7585 21.3621C77.9438 21.0495 78.8244 20.3295 79.4076 19.1858L79.4873 19.0296L82.1765 19.8349L82.0828 20.0481C81.707 20.9031 81.2074 21.6476 80.5834 22.2797C79.7309 23.1431 78.6986 23.7345 77.491 24.0531C76.586 24.2918 75.6785 24.3532 74.77 24.2363L74.768 24.2361L74.7661 24.2358C73.8552 24.1018 73.005 23.8108 72.217 23.3629C71.429 22.915 70.7479 22.3357 70.1746 21.6261L70.1734 21.6246L70.1722 21.6231C69.6151 20.9069 69.2154 20.1025 68.9729 19.2117C68.7304 18.3208 68.6681 17.4274 68.7868 16.533L68.7869 16.5319L68.7871 16.5308C68.9183 15.6176 69.2112 14.7719 69.6663 13.9956C70.1048 13.2226 70.6885 12.5616 71.4154 12.0136L71.4167 12.0126C72.1607 11.4605 72.9859 11.0648 73.8908 10.8261ZM74.5678 13.3135C75.2434 13.1353 75.9154 13.1142 76.5863 13.2494C77.259 13.3849 77.8281 13.6487 78.2991 14.0379L78.3022 14.0405L78.3054 14.0429C78.723 14.3619 79.0071 14.7349 79.1658 15.1627L71.5246 17.1783C71.4424 16.7282 71.4916 16.2662 71.6771 15.7881C71.9046 15.2125 72.273 14.7004 72.7872 14.2515C73.2996 13.8043 73.8922 13.4917 74.5678 13.3135Z" fill="#FB414D"/>
<path fill-rule="evenodd" clip-rule="evenodd" d="M64.9491 6.24569C64.7791 6.24569 64.6414 6.38132 64.6414 6.54862V12.1158C64.1783 11.6407 63.6368 11.2544 63.0184 10.9569C62.2369 10.5725 61.3659 10.3822 60.4093 10.3822C59.4371 10.3822 58.5257 10.5628 57.6775 10.9255C56.8307 11.2702 56.0931 11.7693 55.4666 12.4221C54.8242 13.0728 54.3195 13.823 53.9529 14.6711L53.9525 14.6722L53.952 14.6732C53.602 15.5074 53.4276 16.395 53.4276 17.3343C53.4276 18.2736 53.602 19.1695 53.9514 20.0204L53.9525 20.0229L53.9536 20.0253C54.3203 20.8558 54.8249 21.5966 55.4666 22.2466C56.0928 22.899 56.8297 23.4066 57.6758 23.7687L57.6775 23.7695L57.6793 23.7702C58.5272 24.115 59.4379 24.2865 60.4093 24.2865C61.2818 24.2865 62.1172 24.0852 62.913 23.6846C63.5592 23.3664 64.1356 22.9557 64.6414 22.453V23.8518C64.6414 24.0191 64.7792 24.1548 64.9491 24.1548H67.1101C67.28 24.1548 67.4178 24.0191 67.4178 23.8518V6.54862C67.4178 6.38132 67.28 6.24569 67.1101 6.24569H64.9491ZM58.807 13.5198C59.3155 13.3029 59.849 13.1944 60.4093 13.1944C60.9696 13.1944 61.5031 13.3029 62.0116 13.5198L62.0155 13.5215L62.0194 13.523C62.545 13.7232 62.9914 14.014 63.3616 14.3951C63.7354 14.7797 64.0338 15.2322 64.2563 15.7547L64.2568 15.7558L64.2573 15.7569C64.4777 16.2576 64.5879 16.7828 64.5879 17.3343C64.5879 18.4556 64.1821 19.4322 63.3619 20.2733C62.9905 20.6556 62.5419 20.9562 62.0139 21.1742L62.0128 21.1747L62.0116 21.1752C61.5031 21.3921 60.9696 21.5006 60.4093 21.5006C59.849 21.5006 59.3155 21.3921 58.807 21.1752C58.2967 20.9575 57.8563 20.6571 57.4837 20.2736C56.6635 19.4325 56.2575 18.4556 56.2575 17.3343C56.2575 16.7828 56.3677 16.2576 56.5881 15.7569L56.5886 15.7558L56.5891 15.7547C56.8116 15.2322 57.11 14.7797 57.4837 14.3951C57.8551 14.0128 58.2937 13.722 58.8014 13.5221L58.8042 13.521L58.807 13.5198Z" fill="#FB414D"/>
<path fill-rule="evenodd" clip-rule="evenodd" d="M90.8431 11.3512C90.6165 11.9648 90.3393 12.7157 90.0224 13.6095C89.5751 14.871 89.339 16.2501 89.1323 17.4565C88.9481 18.5322 88.7874 19.4706 88.5216 20.066C87.9576 21.3292 87.1409 22.3835 86.8501 22.3835C86.5593 22.3835 88.8416 22.4784 89.4055 21.917C88.8333 24.4028 86.8108 26.3791 86.5529 26.442C86.5316 26.4431 86.5271 26.4436 86.5417 26.4436C86.5449 26.4436 86.5487 26.4431 86.5529 26.442C86.5639 26.4415 86.5794 26.4407 86.599 26.4398C87.0687 26.4174 89.9113 26.2822 90.5158 25.6804C90.5158 26.272 89.3998 29.1572 88.8302 29.2041L88.8121 29.2046L88.8163 29.2046C88.8209 29.2046 88.8255 29.2044 88.8302 29.2041C89.2928 29.1883 91.5929 29.0382 92.7893 27.8472L93.6176 28.7392C96.2259 31.3358 102.174 31.7333 102.174 31.7333L103.897 24.8179C104.156 23.7757 105.066 23.0221 106.143 22.9573L113.042 22.5422C113.251 22.5296 113.444 22.425 113.568 22.2568L113.943 21.7483C114.11 21.5216 114.345 21.3537 114.614 21.2689C114.896 21.1802 115.139 21.0009 115.307 20.7593L116.798 18.613C116.933 18.4187 117.043 18.2081 117.125 17.9864L117.957 15.7367C118.07 15.431 117.956 15.0878 117.658 14.9525C117.306 14.7925 116.805 14.6184 116.291 14.6184C115.67 14.6184 115.359 14.5605 115.218 14.5203C115.189 14.512 115.16 14.5024 115.131 14.4928C115.091 14.4796 115.051 14.4664 115.01 14.4564L109.286 13.0516C109.094 13.0046 108.932 12.8802 108.837 12.7084L107.937 11.0799C107.611 10.4893 107.103 10.0182 106.489 9.73532L101.106 7.25786C100.959 7.19007 100.842 7.07765 100.77 6.93294C100.184 5.75679 97.4029 0.266663 96.563 0.266663C96.0429 0.266663 96.2349 1.41461 96.4549 2.73028C96.6085 3.64921 96.7759 4.64997 96.7238 5.39854C96.6683 5.28881 96.5948 5.1397 96.5069 4.96136C95.8075 3.54284 94.1967 0.275483 93.4757 0.275483C92.8314 0.275483 92.4817 2.69722 91.956 6.33795C91.8195 7.28309 91.6712 8.31038 91.5028 9.39878C91.4585 9.68483 91.2214 10.3268 90.8431 11.3512ZM93.5869 7.97325C93.5989 7.57204 93.7239 3.57391 93.934 3.57391C94.1528 3.57391 95.7524 7.38378 95.7859 7.46373L95.788 7.46878C95.896 7.73406 95.8643 8.03161 95.8032 8.30866L95.5265 9.49803C95.4458 9.7958 95.0736 9.89645 94.8484 9.69143C94.8391 9.68293 94.83 9.67417 94.8209 9.66541C94.807 9.65215 94.7932 9.63889 94.7787 9.6265L93.9312 8.90548C93.8795 8.8615 93.8297 8.81485 93.7901 8.75978C93.6451 8.55797 93.571 8.30177 93.5837 8.0407C93.5841 8.03349 93.5845 8.02655 93.5848 8.01971C93.5856 8.00433 93.5864 7.98946 93.5869 7.97325Z" fill="#FB414D"/>
</g>
<defs>
<clipPath id="clip0_1502_17">
<rect width="118" height="31.4667" fill="white" transform="translate(0 0.266663)"/>
</clipPath>
</defs>
</svg>
